<mxfile host="app.diagrams.net" modified="2021-01-28T22:18:28.151Z" agent="5.0 (Windows NT 10.0; WOW64) AppleWebKit/537.36 (KHTML, like Gecko) Chrome/70.0.3538.25 Safari/537.36 Core/1.70.3861.400 QQBrowser/10.7.4313.400" etag="qSBc6BH9HBZDAmq3_JYo" version="14.2.7" type="github">
  <diagram id="E-zeXJ4_sD5peonB0QX5" name="Page-1">
    <mxGraphModel dx="2721" dy="486" grid="1" gridSize="10" guides="1" tooltips="1" connect="1" arrows="1" fold="1" page="1" pageScale="1" pageWidth="827" pageHeight="1169" math="0" shadow="0">
      <root>
        <mxCell id="0" />
        <mxCell id="1" parent="0" />
        <mxCell id="kqntZB6sAMNFrYoyA4aj-6" style="edgeStyle=orthogonalEdgeStyle;rounded=0;orthogonalLoop=1;jettySize=auto;html=1;exitX=0.5;exitY=1;exitDx=0;exitDy=0;entryX=0.476;entryY=-0.033;entryDx=0;entryDy=0;entryPerimeter=0;" parent="1" source="kqntZB6sAMNFrYoyA4aj-4" target="kqntZB6sAMNFrYoyA4aj-5" edge="1">
          <mxGeometry relative="1" as="geometry" />
        </mxCell>
        <mxCell id="kqntZB6sAMNFrYoyA4aj-4" value="spring-cloud-netfix-eureka-client&lt;br&gt;spring.factories" style="rounded=1;whiteSpace=wrap;html=1;" parent="1" vertex="1">
          <mxGeometry x="290" y="40" width="240" height="60" as="geometry" />
        </mxCell>
        <mxCell id="kqntZB6sAMNFrYoyA4aj-9" style="edgeStyle=orthogonalEdgeStyle;rounded=0;orthogonalLoop=1;jettySize=auto;html=1;entryX=0.461;entryY=0.033;entryDx=0;entryDy=0;entryPerimeter=0;" parent="1" source="kqntZB6sAMNFrYoyA4aj-5" target="kqntZB6sAMNFrYoyA4aj-7" edge="1">
          <mxGeometry relative="1" as="geometry" />
        </mxCell>
        <mxCell id="kqntZB6sAMNFrYoyA4aj-19" style="edgeStyle=orthogonalEdgeStyle;rounded=0;orthogonalLoop=1;jettySize=auto;html=1;exitX=0;exitY=0.5;exitDx=0;exitDy=0;entryX=1;entryY=0.383;entryDx=0;entryDy=0;entryPerimeter=0;" parent="1" source="kqntZB6sAMNFrYoyA4aj-5" target="kqntZB6sAMNFrYoyA4aj-18" edge="1">
          <mxGeometry relative="1" as="geometry" />
        </mxCell>
        <mxCell id="kqntZB6sAMNFrYoyA4aj-5" value="EurekaClientAutoConfiguration" style="rounded=1;whiteSpace=wrap;html=1;" parent="1" vertex="1">
          <mxGeometry x="290" y="185" width="250" height="80" as="geometry" />
        </mxCell>
        <mxCell id="kqntZB6sAMNFrYoyA4aj-13" style="edgeStyle=orthogonalEdgeStyle;rounded=0;orthogonalLoop=1;jettySize=auto;html=1;exitX=0.5;exitY=1;exitDx=0;exitDy=0;entryX=0.537;entryY=-0.033;entryDx=0;entryDy=0;entryPerimeter=0;" parent="1" source="kqntZB6sAMNFrYoyA4aj-7" target="kqntZB6sAMNFrYoyA4aj-12" edge="1">
          <mxGeometry relative="1" as="geometry" />
        </mxCell>
        <mxCell id="kqntZB6sAMNFrYoyA4aj-7" value="&lt;pre style=&quot;background-color: rgb(255 , 255 , 255) ; font-size: 12pt&quot;&gt;eurekaApplicationInfoManager(EurekaInstanceConfig config)&lt;/pre&gt;&lt;pre style=&quot;background-color: rgb(255 , 255 , 255) ; font-size: 12pt&quot;&gt;&lt;pre style=&quot;font-size: 12pt&quot;&gt;(&lt;span style=&quot;color: #000080 ; font-weight: bold&quot;&gt;new &lt;/span&gt;InstanceInfoFactory()).create(config);&lt;/pre&gt;&lt;/pre&gt;" style="rounded=1;whiteSpace=wrap;html=1;" parent="1" vertex="1">
          <mxGeometry x="130" y="360" width="620" height="60" as="geometry" />
        </mxCell>
        <mxCell id="kqntZB6sAMNFrYoyA4aj-10" value="创建实例" style="text;html=1;strokeColor=none;fillColor=none;align=center;verticalAlign=middle;whiteSpace=wrap;rounded=0;" parent="1" vertex="1">
          <mxGeometry x="330" y="310" width="60" height="20" as="geometry" />
        </mxCell>
        <mxCell id="6nmnl3a9_LXXylR-NsBW-4" style="edgeStyle=orthogonalEdgeStyle;rounded=0;orthogonalLoop=1;jettySize=auto;html=1;exitX=0.5;exitY=1;exitDx=0;exitDy=0;" parent="1" source="kqntZB6sAMNFrYoyA4aj-12" target="6nmnl3a9_LXXylR-NsBW-3" edge="1">
          <mxGeometry relative="1" as="geometry" />
        </mxCell>
        <mxCell id="kqntZB6sAMNFrYoyA4aj-12" value="&lt;br&gt;&lt;br&gt;&lt;pre style=&quot;color: rgb(0 , 0 , 0) ; font-size: 12pt ; font-style: normal ; font-weight: 400 ; letter-spacing: normal ; text-align: center ; text-indent: 0px ; text-transform: none ; word-spacing: 0px&quot;&gt;InstanceInfoFactory.create()&lt;/pre&gt;&lt;br&gt;" style="rounded=1;whiteSpace=wrap;html=1;" parent="1" vertex="1">
          <mxGeometry x="220" y="510" width="410" height="60" as="geometry" />
        </mxCell>
        <mxCell id="kqntZB6sAMNFrYoyA4aj-14" value="&lt;pre style=&quot;background-color: rgb(255 , 255 , 255) ; font-size: 12pt&quot;&gt;EurekaInstanceConfigBean&lt;/pre&gt;" style="rounded=1;whiteSpace=wrap;html=1;" parent="1" vertex="1">
          <mxGeometry x="225" y="920" width="400" height="60" as="geometry" />
        </mxCell>
        <mxCell id="kqntZB6sAMNFrYoyA4aj-16" value="eureka.instance实例信息配置类&lt;br&gt;&lt;pre style=&quot;background-color: rgb(255 , 255 , 255) ; font-size: 12pt&quot;&gt;&lt;span style=&quot;color: #008000 ; font-weight: bold&quot;&gt;eureka.instance&lt;/span&gt;&lt;/pre&gt;" style="text;html=1;strokeColor=none;fillColor=none;align=center;verticalAlign=middle;whiteSpace=wrap;rounded=0;" parent="1" vertex="1">
          <mxGeometry x="330" y="790" width="190" height="70" as="geometry" />
        </mxCell>
        <mxCell id="kqntZB6sAMNFrYoyA4aj-17" value="&lt;span&gt;EurekaSe&#39;rverAutoConfiguration&lt;br&gt;server配置&lt;br&gt;&lt;/span&gt;" style="rounded=0;whiteSpace=wrap;html=1;" parent="1" vertex="1">
          <mxGeometry x="690" y="182.5" width="300" height="95" as="geometry" />
        </mxCell>
        <mxCell id="kqntZB6sAMNFrYoyA4aj-22" style="edgeStyle=orthogonalEdgeStyle;rounded=0;orthogonalLoop=1;jettySize=auto;html=1;entryX=0.5;entryY=0;entryDx=0;entryDy=0;" parent="1" source="kqntZB6sAMNFrYoyA4aj-18" target="kqntZB6sAMNFrYoyA4aj-21" edge="1">
          <mxGeometry relative="1" as="geometry" />
        </mxCell>
        <mxCell id="6nmnl3a9_LXXylR-NsBW-8" style="edgeStyle=orthogonalEdgeStyle;rounded=0;orthogonalLoop=1;jettySize=auto;html=1;exitX=0;exitY=0.5;exitDx=0;exitDy=0;entryX=1;entryY=0.5;entryDx=0;entryDy=0;" parent="1" source="kqntZB6sAMNFrYoyA4aj-18" target="6nmnl3a9_LXXylR-NsBW-7" edge="1">
          <mxGeometry relative="1" as="geometry" />
        </mxCell>
        <mxCell id="kqntZB6sAMNFrYoyA4aj-18" value="&lt;pre style=&quot;background-color: rgb(255 , 255 , 255) ; font-size: 12pt&quot;&gt;eurekaClient(ApplicationInfoManager manager,EurekaClientConfig config&lt;span style=&quot;font-size: 12pt ; font-family: &amp;#34;helvetica&amp;#34; ; white-space: normal&quot;&gt;)&lt;/span&gt;&lt;/pre&gt;&lt;pre style=&quot;background-color: rgb(255 , 255 , 255) ; font-size: 12pt&quot;&gt;&lt;pre style=&quot;font-size: 12pt&quot;&gt;&lt;span style=&quot;color: #000080 ; font-weight: bold&quot;&gt;new &lt;/span&gt;CloudEurekaClient&lt;/pre&gt;&lt;/pre&gt;" style="rounded=1;whiteSpace=wrap;html=1;" parent="1" vertex="1">
          <mxGeometry x="-605" y="195" width="600" height="70" as="geometry" />
        </mxCell>
        <mxCell id="kqntZB6sAMNFrYoyA4aj-20" value="eureka-client实例化" style="text;html=1;strokeColor=none;fillColor=none;align=center;verticalAlign=middle;whiteSpace=wrap;rounded=0;" parent="1" vertex="1">
          <mxGeometry x="100" y="200" width="80" height="20" as="geometry" />
        </mxCell>
        <mxCell id="kqntZB6sAMNFrYoyA4aj-24" style="edgeStyle=orthogonalEdgeStyle;rounded=0;orthogonalLoop=1;jettySize=auto;html=1;entryX=0.432;entryY=-0.017;entryDx=0;entryDy=0;entryPerimeter=0;" parent="1" source="kqntZB6sAMNFrYoyA4aj-21" target="kqntZB6sAMNFrYoyA4aj-23" edge="1">
          <mxGeometry relative="1" as="geometry" />
        </mxCell>
        <mxCell id="kqntZB6sAMNFrYoyA4aj-21" value="&lt;pre style=&quot;background-color: rgb(255 , 255 , 255) ; font-size: 12pt&quot;&gt;CloudEurekaClient()构造器&lt;/pre&gt;&lt;pre style=&quot;background-color: rgb(255 , 255 , 255) ; font-size: 12pt&quot;&gt;&lt;pre style=&quot;font-size: 12pt&quot;&gt;&lt;span style=&quot;color: #000080 ; font-weight: bold&quot;&gt;super&lt;/span&gt;(applicationInfoManager, config, args);&lt;/pre&gt;&lt;/pre&gt;" style="rounded=1;whiteSpace=wrap;html=1;" parent="1" vertex="1">
          <mxGeometry x="-485" y="370" width="360" height="60" as="geometry" />
        </mxCell>
        <mxCell id="kqntZB6sAMNFrYoyA4aj-26" style="edgeStyle=orthogonalEdgeStyle;rounded=0;orthogonalLoop=1;jettySize=auto;html=1;exitX=0.5;exitY=1;exitDx=0;exitDy=0;entryX=0.454;entryY=0.025;entryDx=0;entryDy=0;entryPerimeter=0;" parent="1" source="kqntZB6sAMNFrYoyA4aj-23" target="kqntZB6sAMNFrYoyA4aj-25" edge="1">
          <mxGeometry relative="1" as="geometry" />
        </mxCell>
        <mxCell id="kqntZB6sAMNFrYoyA4aj-23" value="&lt;pre style=&quot;background-color: rgb(255 , 255 , 255) ; font-size: 12pt&quot;&gt;DiscoveryClient类&lt;/pre&gt;&lt;pre style=&quot;background-color: rgb(255 , 255 , 255) ; font-size: 12pt&quot;&gt;构造器&lt;/pre&gt;&lt;pre style=&quot;background-color: rgb(255 , 255 , 255) ; font-size: 12pt&quot;&gt;&lt;pre style=&quot;font-size: 12pt&quot;&gt;@Inject&lt;/pre&gt;&lt;/pre&gt;&lt;pre style=&quot;background-color: rgb(255 , 255 , 255) ; font-size: 12pt&quot;&gt;this()&lt;/pre&gt;" style="rounded=1;whiteSpace=wrap;html=1;" parent="1" vertex="1">
          <mxGeometry x="-400" y="530" width="220" height="150" as="geometry" />
        </mxCell>
        <mxCell id="kqntZB6sAMNFrYoyA4aj-28" style="edgeStyle=orthogonalEdgeStyle;rounded=0;orthogonalLoop=1;jettySize=auto;html=1;entryX=0.521;entryY=-0.008;entryDx=0;entryDy=0;entryPerimeter=0;" parent="1" source="kqntZB6sAMNFrYoyA4aj-25" target="kqntZB6sAMNFrYoyA4aj-27" edge="1">
          <mxGeometry relative="1" as="geometry" />
        </mxCell>
        <mxCell id="kqntZB6sAMNFrYoyA4aj-25" value="构建线程, 心跳, 续租等等&lt;br&gt;&lt;pre style=&quot;background-color: rgb(255 , 255 , 255) ; font-size: 12pt&quot;&gt;initScheduledTasks()启动线程&lt;/pre&gt;" style="rounded=1;whiteSpace=wrap;html=1;" parent="1" vertex="1">
          <mxGeometry x="-450" y="790" width="350" height="90" as="geometry" />
        </mxCell>
        <mxCell id="kqntZB6sAMNFrYoyA4aj-30" style="edgeStyle=orthogonalEdgeStyle;rounded=0;orthogonalLoop=1;jettySize=auto;html=1;exitX=0.5;exitY=1;exitDx=0;exitDy=0;entryX=0.5;entryY=0;entryDx=0;entryDy=0;" parent="1" source="kqntZB6sAMNFrYoyA4aj-27" target="kqntZB6sAMNFrYoyA4aj-29" edge="1">
          <mxGeometry relative="1" as="geometry">
            <Array as="points">
              <mxPoint x="-285" y="1160" />
            </Array>
          </mxGeometry>
        </mxCell>
        <mxCell id="kqntZB6sAMNFrYoyA4aj-27" value="&lt;pre style=&quot;background-color: rgb(255 , 255 , 255) ; font-size: 12pt&quot;&gt;clientConfig.shouldRegisterWithEureka()&lt;/pre&gt;&lt;pre style=&quot;background-color: rgb(255 , 255 , 255) ; font-size: 12pt&quot;&gt;&lt;pre style=&quot;font-size: 12pt&quot;&gt;scheduler.schedule()&lt;/pre&gt;&lt;pre style=&quot;font-size: 12pt&quot;&gt;&lt;pre style=&quot;font-size: 12pt&quot;&gt;&lt;span style=&quot;color: #000080 ; font-weight: bold&quot;&gt;new &lt;/span&gt;HeartbeatThread()&lt;/pre&gt;&lt;/pre&gt;&lt;pre style=&quot;font-size: 12pt&quot;&gt;&lt;br&gt;&lt;/pre&gt;&lt;/pre&gt;" style="rounded=1;whiteSpace=wrap;html=1;" parent="1" vertex="1">
          <mxGeometry x="-520" y="950" width="470" height="130" as="geometry" />
        </mxCell>
        <mxCell id="nTe1SbdjQn99EuHagE9e-3" style="edgeStyle=orthogonalEdgeStyle;rounded=0;orthogonalLoop=1;jettySize=auto;html=1;entryX=0.5;entryY=0;entryDx=0;entryDy=0;" edge="1" parent="1" source="kqntZB6sAMNFrYoyA4aj-29" target="nTe1SbdjQn99EuHagE9e-2">
          <mxGeometry relative="1" as="geometry" />
        </mxCell>
        <mxCell id="kqntZB6sAMNFrYoyA4aj-29" value="&lt;pre style=&quot;background-color: rgb(255 , 255 , 255) ; font-size: 12pt&quot;&gt;HeartbeatThread&lt;/pre&gt;&lt;pre style=&quot;background-color: rgb(255 , 255 , 255) ; font-size: 12pt&quot;&gt;run()&lt;/pre&gt;" style="rounded=1;whiteSpace=wrap;html=1;" parent="1" vertex="1">
          <mxGeometry x="-510" y="1169" width="450" height="90" as="geometry" />
        </mxCell>
        <mxCell id="6nmnl3a9_LXXylR-NsBW-5" style="edgeStyle=orthogonalEdgeStyle;rounded=0;orthogonalLoop=1;jettySize=auto;html=1;exitX=0.5;exitY=1;exitDx=0;exitDy=0;entryX=0.5;entryY=0;entryDx=0;entryDy=0;" parent="1" source="6nmnl3a9_LXXylR-NsBW-3" edge="1" target="kqntZB6sAMNFrYoyA4aj-14">
          <mxGeometry relative="1" as="geometry">
            <mxPoint x="335" y="880" as="targetPoint" />
          </mxGeometry>
        </mxCell>
        <mxCell id="6nmnl3a9_LXXylR-NsBW-3" value="&lt;pre style=&quot;background-color: rgb(255 , 255 , 255) ; font-size: 12pt&quot;&gt;&lt;span style=&quot;color: #000080 ; font-weight: bold&quot;&gt;interface &lt;/span&gt;EurekaInstanceConfig&lt;/pre&gt;" style="rounded=1;whiteSpace=wrap;html=1;" parent="1" vertex="1">
          <mxGeometry x="220" y="710" width="410" height="60" as="geometry" />
        </mxCell>
        <mxCell id="6nmnl3a9_LXXylR-NsBW-6" value="实现类" style="text;html=1;strokeColor=none;fillColor=none;align=center;verticalAlign=middle;whiteSpace=wrap;rounded=0;" parent="1" vertex="1">
          <mxGeometry x="350" y="760" width="40" height="20" as="geometry" />
        </mxCell>
        <mxCell id="6nmnl3a9_LXXylR-NsBW-7" value="&lt;pre style=&quot;background-color: rgb(255 , 255 , 255) ; font-size: 12pt&quot;&gt;EurekaClientConfigBean&lt;/pre&gt;&lt;pre style=&quot;background-color: rgb(255 , 255 , 255) ; font-size: 12pt&quot;&gt;client配置类&lt;/pre&gt;" style="rounded=1;whiteSpace=wrap;html=1;" parent="1" vertex="1">
          <mxGeometry x="-1110" y="200" width="220" height="60" as="geometry" />
        </mxCell>
        <mxCell id="6nmnl3a9_LXXylR-NsBW-9" value="心跳" style="text;html=1;strokeColor=none;fillColor=none;align=center;verticalAlign=middle;whiteSpace=wrap;rounded=0;" parent="1" vertex="1">
          <mxGeometry x="-280" y="1110" width="40" height="20" as="geometry" />
        </mxCell>
        <mxCell id="nTe1SbdjQn99EuHagE9e-1" value="&lt;h1&gt;注册流程:&lt;/h1&gt;&lt;p&gt;客服端启动时会初始化一些定时任务,如果服务需要注册到服务端,客户端会先向服务端发送一次心跳,如果返回的状态码是404, 会想服务端注册&lt;/p&gt;" style="text;html=1;strokeColor=none;fillColor=none;spacing=5;spacingTop=-20;whiteSpace=wrap;overflow=hidden;rounded=0;" vertex="1" parent="1">
          <mxGeometry x="-890" y="1100" width="330" height="120" as="geometry" />
        </mxCell>
        <mxCell id="nTe1SbdjQn99EuHagE9e-5" style="edgeStyle=orthogonalEdgeStyle;rounded=0;orthogonalLoop=1;jettySize=auto;html=1;exitX=0.5;exitY=1;exitDx=0;exitDy=0;entryX=0.5;entryY=0;entryDx=0;entryDy=0;" edge="1" parent="1" source="nTe1SbdjQn99EuHagE9e-2" target="nTe1SbdjQn99EuHagE9e-4">
          <mxGeometry relative="1" as="geometry" />
        </mxCell>
        <mxCell id="nTe1SbdjQn99EuHagE9e-2" value="renew()" style="rounded=1;whiteSpace=wrap;html=1;" vertex="1" parent="1">
          <mxGeometry x="-345" y="1340" width="120" height="60" as="geometry" />
        </mxCell>
        <mxCell id="nTe1SbdjQn99EuHagE9e-9" style="edgeStyle=orthogonalEdgeStyle;rounded=0;orthogonalLoop=1;jettySize=auto;html=1;" edge="1" parent="1" source="nTe1SbdjQn99EuHagE9e-4">
          <mxGeometry relative="1" as="geometry">
            <mxPoint x="-285" y="1740" as="targetPoint" />
          </mxGeometry>
        </mxCell>
        <mxCell id="nTe1SbdjQn99EuHagE9e-13" style="edgeStyle=orthogonalEdgeStyle;rounded=0;orthogonalLoop=1;jettySize=auto;html=1;entryX=0.5;entryY=0;entryDx=0;entryDy=0;" edge="1" parent="1" source="nTe1SbdjQn99EuHagE9e-4" target="nTe1SbdjQn99EuHagE9e-12">
          <mxGeometry relative="1" as="geometry" />
        </mxCell>
        <mxCell id="nTe1SbdjQn99EuHagE9e-4" value="&lt;pre style=&quot;background-color: rgb(255 , 255 , 255) ; font-size: 12pt&quot;&gt;EurekaHttpResponse&amp;lt;InstanceInfo&amp;gt; httpResponse&lt;/pre&gt;" style="rhombus;whiteSpace=wrap;html=1;" vertex="1" parent="1">
          <mxGeometry x="-522.5" y="1550" width="475" height="80" as="geometry" />
        </mxCell>
        <mxCell id="nTe1SbdjQn99EuHagE9e-11" value="return true" style="rounded=1;whiteSpace=wrap;html=1;" vertex="1" parent="1">
          <mxGeometry x="-345" y="1740" width="120" height="60" as="geometry" />
        </mxCell>
        <mxCell id="nTe1SbdjQn99EuHagE9e-17" style="edgeStyle=orthogonalEdgeStyle;rounded=0;orthogonalLoop=1;jettySize=auto;html=1;entryX=0.481;entryY=0.033;entryDx=0;entryDy=0;entryPerimeter=0;" edge="1" parent="1" source="nTe1SbdjQn99EuHagE9e-12" target="nTe1SbdjQn99EuHagE9e-16">
          <mxGeometry relative="1" as="geometry" />
        </mxCell>
        <mxCell id="nTe1SbdjQn99EuHagE9e-12" value="&lt;pre style=&quot;background-color: rgb(255 , 255 , 255) ; font-size: 12pt&quot;&gt;register()&lt;/pre&gt;" style="rounded=1;whiteSpace=wrap;html=1;" vertex="1" parent="1">
          <mxGeometry x="-725" y="1740" width="120" height="60" as="geometry" />
        </mxCell>
        <mxCell id="nTe1SbdjQn99EuHagE9e-14" value="&lt;pre style=&quot;background-color: #ffffff ; color: #000000 ; font-family: &amp;#34;宋体&amp;#34; ; font-size: 12.0pt&quot;&gt;httpResponse.getStatusCode()==200&lt;/pre&gt;" style="text;whiteSpace=wrap;html=1;" vertex="1" parent="1">
          <mxGeometry x="-274" y="1650" width="270" height="60" as="geometry" />
        </mxCell>
        <mxCell id="nTe1SbdjQn99EuHagE9e-15" value="&lt;pre style=&quot;background-color: #ffffff ; color: #000000 ; font-family: &amp;#34;宋体&amp;#34; ; font-size: 12.0pt&quot;&gt;httpResponse.getStatusCode()==404&lt;/pre&gt;" style="text;whiteSpace=wrap;html=1;" vertex="1" parent="1">
          <mxGeometry x="-790" y="1630" width="270" height="60" as="geometry" />
        </mxCell>
        <mxCell id="nTe1SbdjQn99EuHagE9e-16" value="&lt;pre style=&quot;background-color: rgb(255 , 255 , 255) ; font-size: 12pt&quot;&gt;AbstractJerseyEurekaHttpClient&lt;/pre&gt;&lt;pre style=&quot;background-color: rgb(255 , 255 , 255) ; font-size: 12pt&quot;&gt;&lt;pre style=&quot;font-size: 12pt&quot;&gt;register(InstanceInfo info)&lt;/pre&gt;&lt;/pre&gt;" style="rounded=1;whiteSpace=wrap;html=1;" vertex="1" parent="1">
          <mxGeometry x="-805" y="1900" width="285" height="60" as="geometry" />
        </mxCell>
        <mxCell id="nTe1SbdjQn99EuHagE9e-18" value="注册" style="text;html=1;align=center;verticalAlign=middle;resizable=0;points=[];autosize=1;" vertex="1" parent="1">
          <mxGeometry x="-660" y="1840" width="40" height="20" as="geometry" />
        </mxCell>
        <mxCell id="nTe1SbdjQn99EuHagE9e-23" style="edgeStyle=orthogonalEdgeStyle;rounded=0;orthogonalLoop=1;jettySize=auto;html=1;" edge="1" parent="1" source="nTe1SbdjQn99EuHagE9e-19" target="nTe1SbdjQn99EuHagE9e-22">
          <mxGeometry relative="1" as="geometry" />
        </mxCell>
        <mxCell id="nTe1SbdjQn99EuHagE9e-19" value="服务端接收注册" style="rounded=1;whiteSpace=wrap;html=1;" vertex="1" parent="1">
          <mxGeometry x="-540" y="2080" width="120" height="60" as="geometry" />
        </mxCell>
        <mxCell id="nTe1SbdjQn99EuHagE9e-25" style="edgeStyle=orthogonalEdgeStyle;rounded=0;orthogonalLoop=1;jettySize=auto;html=1;exitX=0.5;exitY=1;exitDx=0;exitDy=0;entryX=0.483;entryY=0.033;entryDx=0;entryDy=0;entryPerimeter=0;" edge="1" parent="1" source="nTe1SbdjQn99EuHagE9e-22" target="nTe1SbdjQn99EuHagE9e-24">
          <mxGeometry relative="1" as="geometry" />
        </mxCell>
        <mxCell id="nTe1SbdjQn99EuHagE9e-22" value="spring-cloud-netfix-eureka-client&lt;br&gt;spring.factories" style="rounded=1;whiteSpace=wrap;html=1;" vertex="1" parent="1">
          <mxGeometry x="-600" y="2210" width="240" height="60" as="geometry" />
        </mxCell>
        <mxCell id="nTe1SbdjQn99EuHagE9e-27" style="edgeStyle=orthogonalEdgeStyle;rounded=0;orthogonalLoop=1;jettySize=auto;html=1;entryX=0.5;entryY=0;entryDx=0;entryDy=0;" edge="1" parent="1" source="nTe1SbdjQn99EuHagE9e-24" target="nTe1SbdjQn99EuHagE9e-26">
          <mxGeometry relative="1" as="geometry" />
        </mxCell>
        <mxCell id="nTe1SbdjQn99EuHagE9e-24" value="&lt;pre style=&quot;background-color: rgb(255 , 255 , 255) ; font-size: 12pt&quot;&gt;EurekaServerAutoConfiguration&lt;/pre&gt;&lt;pre style=&quot;background-color: rgb(255 , 255 , 255) ; font-size: 12pt&quot;&gt;&lt;pre style=&quot;font-size: 12pt&quot;&gt;jerseyFilterRegistration(javax.ws.rs.core.Application eurekaJerseyApp)&lt;/pre&gt;&lt;/pre&gt;" style="rounded=1;whiteSpace=wrap;html=1;" vertex="1" parent="1">
          <mxGeometry x="-760" y="2360" width="580" height="60" as="geometry" />
        </mxCell>
        <mxCell id="nTe1SbdjQn99EuHagE9e-29" style="edgeStyle=orthogonalEdgeStyle;rounded=0;orthogonalLoop=1;jettySize=auto;html=1;entryX=0.5;entryY=0;entryDx=0;entryDy=0;" edge="1" parent="1" source="nTe1SbdjQn99EuHagE9e-26" target="nTe1SbdjQn99EuHagE9e-28">
          <mxGeometry relative="1" as="geometry" />
        </mxCell>
        <mxCell id="nTe1SbdjQn99EuHagE9e-26" value="配置文件配置日志打印级别为debug&lt;br&gt;&lt;pre style=&quot;background-color: rgb(255 , 255 , 255) ; font-size: 12pt&quot;&gt;&lt;span style=&quot;color: #000080 ; font-weight: bold&quot;&gt;logging&lt;/span&gt;:&lt;br&gt;  &lt;span style=&quot;color: #000080 ; font-weight: bold&quot;&gt;level&lt;/span&gt;:&lt;br&gt;    &lt;span style=&quot;color: #000080 ; font-weight: bold&quot;&gt;org.springframework.cloud.netflix&lt;/span&gt;: debug&lt;br&gt;    &lt;span style=&quot;color: #000080 ; font-weight: bold&quot;&gt;com.netflix&lt;/span&gt;: debug&lt;/pre&gt;" style="rounded=1;whiteSpace=wrap;html=1;" vertex="1" parent="1">
          <mxGeometry x="-760" y="2530" width="580" height="130" as="geometry" />
        </mxCell>
        <mxCell id="nTe1SbdjQn99EuHagE9e-31" style="edgeStyle=orthogonalEdgeStyle;rounded=0;orthogonalLoop=1;jettySize=auto;html=1;entryX=0.5;entryY=0;entryDx=0;entryDy=0;" edge="1" parent="1" source="nTe1SbdjQn99EuHagE9e-28" target="nTe1SbdjQn99EuHagE9e-30">
          <mxGeometry relative="1" as="geometry" />
        </mxCell>
        <mxCell id="nTe1SbdjQn99EuHagE9e-28" value="找到日志中返回的接收renew的日志&lt;br&gt;&lt;div&gt;2021-01-28 22:17:53.924 DEBUG 37720 --- [nio-8762-exec-9] c.n.eureka.resources.InstanceResource&amp;nbsp; &amp;nbsp; : Found (Renew): EUREKA-CLIENT-PROVIDER - eureka-client-provider:192.168.24.1:8080; reply status=200&lt;/div&gt;&lt;div&gt;&lt;br&gt;&lt;/div&gt;" style="rounded=1;whiteSpace=wrap;html=1;" vertex="1" parent="1">
          <mxGeometry x="-675" y="2760" width="410" height="100" as="geometry" />
        </mxCell>
        <mxCell id="nTe1SbdjQn99EuHagE9e-33" style="edgeStyle=orthogonalEdgeStyle;rounded=0;orthogonalLoop=1;jettySize=auto;html=1;exitX=0.5;exitY=1;exitDx=0;exitDy=0;" edge="1" parent="1" source="nTe1SbdjQn99EuHagE9e-30" target="nTe1SbdjQn99EuHagE9e-32">
          <mxGeometry relative="1" as="geometry" />
        </mxCell>
        <mxCell id="nTe1SbdjQn99EuHagE9e-30" value="搜索类InstanceResource,在类中查找Found (Renew),&lt;br&gt;找到&lt;span style=&quot;background-color: rgb(255 , 255 , 255) ; font-size: 12pt&quot;&gt;renewLease方法&lt;/span&gt;" style="rounded=1;whiteSpace=wrap;html=1;" vertex="1" parent="1">
          <mxGeometry x="-670" y="2930" width="400" height="60" as="geometry" />
        </mxCell>
        <mxCell id="nTe1SbdjQn99EuHagE9e-35" style="edgeStyle=orthogonalEdgeStyle;rounded=0;orthogonalLoop=1;jettySize=auto;html=1;entryX=0.5;entryY=0;entryDx=0;entryDy=0;" edge="1" parent="1" source="nTe1SbdjQn99EuHagE9e-32" target="nTe1SbdjQn99EuHagE9e-34">
          <mxGeometry relative="1" as="geometry" />
        </mxCell>
        <mxCell id="nTe1SbdjQn99EuHagE9e-32" value="&lt;pre style=&quot;background-color: rgb(255 , 255 , 255) ; font-size: 12pt&quot;&gt;ApplicationResource&lt;/pre&gt;&lt;pre style=&quot;background-color: rgb(255 , 255 , 255) ; font-size: 12pt&quot;&gt;&lt;pre style=&quot;font-size: 12pt&quot;&gt;addInstance(InstanceInfo info,@HeaderParam&lt;span style=&quot;font-size: 12pt&quot;&gt;(PeerEurekaNode.&lt;/span&gt;&lt;span style=&quot;font-size: 12pt ; color: rgb(102 , 14 , 122) ; font-weight: bold ; font-style: italic&quot;&gt;HEADER_REPLICATION&lt;/span&gt;&lt;span style=&quot;font-size: 12pt&quot;&gt;)String isReplication&lt;/span&gt;&lt;span style=&quot;font-size: 12pt&quot;&gt;){&lt;/span&gt;&lt;/pre&gt;&lt;pre style=&quot;font-size: 12pt&quot;&gt;...&lt;/pre&gt;&lt;pre style=&quot;font-size: 12pt&quot;&gt;&lt;pre style=&quot;font-size: 12pt&quot;&gt;&lt;span style=&quot;color: #660e7a ; font-weight: bold&quot;&gt;registry&lt;/span&gt;.register(info, &lt;span style=&quot;color: #008000 ; font-weight: bold&quot;&gt;&quot;true&quot;&lt;/span&gt;.equals(isReplication));&lt;/pre&gt;&lt;/pre&gt;&lt;pre style=&quot;font-size: 12pt&quot;&gt;...&lt;/pre&gt;&lt;pre style=&quot;font-size: 12pt&quot;&gt;}&lt;/pre&gt;&lt;/pre&gt;" style="rounded=1;whiteSpace=wrap;html=1;" vertex="1" parent="1">
          <mxGeometry x="-880" y="3050" width="820" height="200" as="geometry" />
        </mxCell>
        <mxCell id="nTe1SbdjQn99EuHagE9e-39" style="edgeStyle=orthogonalEdgeStyle;rounded=0;orthogonalLoop=1;jettySize=auto;html=1;exitX=0.5;exitY=1;exitDx=0;exitDy=0;entryX=0.5;entryY=0;entryDx=0;entryDy=0;" edge="1" parent="1" source="nTe1SbdjQn99EuHagE9e-34" target="nTe1SbdjQn99EuHagE9e-37">
          <mxGeometry relative="1" as="geometry" />
        </mxCell>
        <mxCell id="nTe1SbdjQn99EuHagE9e-34" value="&lt;pre style=&quot;background-color: rgb(255 , 255 , 255) ; font-size: 12pt&quot;&gt;InstanceRegistry&lt;/pre&gt;&lt;pre style=&quot;background-color: rgb(255 , 255 , 255) ; font-size: 12pt&quot;&gt;&lt;pre style=&quot;font-size: 12pt&quot;&gt;&lt;span style=&quot;color: #808000&quot;&gt;@Override&lt;br&gt;&lt;/span&gt;&lt;span style=&quot;color: #000080 ; font-weight: bold&quot;&gt;public void &lt;/span&gt;register(InstanceInfo info, &lt;span style=&quot;color: #000080 ; font-weight: bold&quot;&gt;int &lt;/span&gt;leaseDuration, &lt;span style=&quot;color: #000080 ; font-weight: bold&quot;&gt;boolean &lt;/span&gt;isReplication) {&lt;br&gt;   handleRegistration(info, leaseDuration, isReplication);&lt;br&gt;   &lt;span style=&quot;color: #000080 ; font-weight: bold&quot;&gt;super&lt;/span&gt;.register(info, leaseDuration, isReplication);&lt;br&gt;}&lt;/pre&gt;&lt;/pre&gt;" style="rounded=1;whiteSpace=wrap;html=1;" vertex="1" parent="1">
          <mxGeometry x="-830" y="3340" width="720" height="140" as="geometry" />
        </mxCell>
        <mxCell id="nTe1SbdjQn99EuHagE9e-36" value="一路跟踪register方法实现啊" style="text;html=1;strokeColor=none;fillColor=none;align=center;verticalAlign=middle;whiteSpace=wrap;rounded=0;" vertex="1" parent="1">
          <mxGeometry x="-465" y="3280" width="103" height="20" as="geometry" />
        </mxCell>
        <mxCell id="nTe1SbdjQn99EuHagE9e-37" value="&lt;pre style=&quot;background-color: rgb(255 , 255 , 255) ; font-size: 12pt&quot;&gt;AbstractInstanceRegistry&lt;/pre&gt;&lt;pre style=&quot;background-color: rgb(255 , 255 , 255) ; font-size: 12pt&quot;&gt;&lt;pre style=&quot;font-size: 12pt&quot;&gt;&lt;span style=&quot;color: #000080 ; font-weight: bold&quot;&gt;private final &lt;/span&gt;ConcurrentHashMap&amp;lt;String, Map&amp;lt;String, Lease&amp;lt;InstanceInfo&amp;gt;&amp;gt;&amp;gt; &lt;span style=&quot;color: #660e7a ; font-weight: bold&quot;&gt;registry&lt;br&gt;&lt;/span&gt;&lt;span style=&quot;color: #660e7a ; font-weight: bold&quot;&gt;        &lt;/span&gt;= &lt;span style=&quot;color: #000080 ; font-weight: bold&quot;&gt;new &lt;/span&gt;ConcurrentHashMap&amp;lt;String, Map&amp;lt;String, Lease&amp;lt;InstanceInfo&amp;gt;&amp;gt;&amp;gt;();&lt;/pre&gt;&lt;/pre&gt;&lt;pre style=&quot;background-color: rgb(255 , 255 , 255) ; font-size: 12pt&quot;&gt;&lt;pre style=&quot;font-size: 12pt&quot;&gt;&lt;span style=&quot;color: #000080 ; font-weight: bold&quot;&gt;public void &lt;/span&gt;register(InstanceInfo registrant, &lt;span style=&quot;color: #000080 ; font-weight: bold&quot;&gt;int &lt;/span&gt;leaseDuration, &lt;span style=&quot;color: #000080 ; font-weight: bold&quot;&gt;boolean &lt;/span&gt;isReplication){&lt;/pre&gt;&lt;pre style=&quot;font-size: 12pt&quot;&gt;}&lt;/pre&gt;&lt;/pre&gt;" style="rounded=1;whiteSpace=wrap;html=1;" vertex="1" parent="1">
          <mxGeometry x="-852.5" y="3600" width="765" height="190" as="geometry" />
        </mxCell>
        <mxCell id="nTe1SbdjQn99EuHagE9e-40" value="此方法为具体的注册, 将客服端实例存放到conCurrentHashMap中" style="text;html=1;strokeColor=none;fillColor=none;align=center;verticalAlign=middle;whiteSpace=wrap;rounded=0;" vertex="1" parent="1">
          <mxGeometry x="-460" y="3540" width="190" height="20" as="geometry" />
        </mxCell>
      </root>
    </mxGraphModel>
  </diagram>
</mxfile>
